<svg width="24" height="24" viewBox="0 0 24 24" fill="none" xmlns="http://www.w3.org/2000/svg">
<path d="M5.83784 2.63333H24V5.16667H5.83784V2.63333ZM5.83784 12.7667V10.2333H24V12.7667H5.83784ZM1.94595 2C2.46204 2 2.957 2.20018 3.32194 2.5565C3.68687 2.91282 3.89189 3.39609 3.89189 3.9C3.89189 4.40391 3.68687 4.88718 3.32194 5.2435C2.957 5.59982 2.46204 5.8 1.94595 5.8C1.42985 5.8 0.93489 5.59982 0.569954 5.2435C0.205019 4.88718 0 4.40391 0 3.9C0 3.39609 0.205019 2.91282 0.569954 2.5565C0.93489 2.20018 1.42985 2 1.94595 2ZM1.94595 9.6C2.46204 9.6 2.957 9.80018 3.32194 10.1565C3.68687 10.5128 3.89189 10.9961 3.89189 11.5C3.89189 12.0039 3.68687 12.4872 3.32194 12.8435C2.957 13.1998 2.46204 13.4 1.94595 13.4C1.42985 13.4 0.93489 13.1998 0.569954 12.8435C0.205019 12.4872 0 12.0039 0 11.5C0 10.9961 0.205019 10.5128 0.569954 10.1565C0.93489 9.80018 1.42985 9.6 1.94595 9.6ZM5.83784 20.3667V17.8333H24V20.3667H5.83784ZM1.94595 17.2C2.46204 17.2 2.957 17.4002 3.32194 17.7565C3.68687 18.1128 3.89189 18.5961 3.89189 19.1C3.89189 19.6039 3.68687 20.0872 3.32194 20.4435C2.957 20.7998 2.46204 21 1.94595 21C1.42985 21 0.93489 20.7998 0.569954 20.4435C0.205019 20.0872 0 19.6039 0 19.1C0 18.5961 0.205019 18.1128 0.569954 17.7565C0.93489 17.4002 1.42985 17.2 1.94595 17.2Z" fill="white"/>
</svg>
